<?xml version="1.0" standalone="no"?>
<!DOCTYPE svg PUBLIC "-//W3C//DTD SVG 20010904//EN"
 "http://www.w3.org/TR/2001/REC-SVG-20010904/DTD/svg10.dtd">
<svg version="1.0" xmlns="http://www.w3.org/2000/svg"
 width="255.000000pt" height="159.000000pt" viewBox="0 0 255.000000 159.000000"
 preserveAspectRatio="xMidYMid meet">

<g transform="translate(0.000000,159.000000) scale(0.100000,-0.100000)"
fill="#0a71c6" stroke="none">
<path d="M0 1120 l0 -470 1275 0 1275 0 0 470 0 470 -1275 0 -1275 0 0 -470z
m230 335 c0 -19 -5 -35 -10 -35 -6 0 -10 16 -8 35 1 19 6 35 10 35 4 0 8 -16
8 -35z m2180 20 l25 -14 -35 0 c-19 0 -29 3 -21 6 11 5 11 7 0 14 -23 15 4 9
31 -6z m60 5 c21 13 27 12 27 -5 0 -10 -10 -15 -29 -15 -20 0 -28 5 -28 18 0
11 3 13 8 5 5 -8 13 -9 22 -3z m-2352 -27 c-3 -30 -28 -45 -28 -17 0 16 -1 16
-15 -2 -12 -15 -16 -16 -24 -5 -18 27 -1 51 36 51 31 0 34 -2 31 -27z m2167
17 c5 -8 11 -8 19 -1 10 8 13 4 13 -19 0 -23 -3 -27 -13 -19 -8 7 -14 7 -19
-1 -3 -5 -11 -10 -17 -10 -7 0 -6 6 2 15 10 12 10 18 0 30 -8 9 -9 15 -2 15 6
0 14 -5 17 -10z m-1997 -27 c2 -13 -1 -23 -7 -23 -6 0 -12 8 -12 18 -1 16 -2
16 -6 0 -7 -27 -23 -21 -23 8 0 21 4 25 23 22 14 -2 23 -11 25 -25z m2142 -4
c0 -5 -4 -7 -10 -4 -5 3 -18 1 -28 -4 -14 -8 -19 -6 -19 5 0 9 11 14 29 14 15
0 28 -5 28 -11z m67 -4 c0 -11 -6 -14 -16 -9 -9 3 -22 7 -28 7 -27 1 -12 17
15 17 19 0 29 -5 29 -15z m-2387 -168 c0 5 43 10 98 10 86 0 98 -2 99 -17 1
-16 -9 -18 -83 -19 -54 0 -84 4 -84 11 0 7 -4 7 -13 0 -16 -14 -57 -11 -57 3
0 19 12 25 27 14 7 -6 13 -7 13 -2z m266 -129 c55 3 62 1 67 -17 5 -19 1 -20
-76 -20 -51 0 -85 5 -89 12 -5 8 -8 7 -9 -3 0 -10 -3 -8 -9 5 -7 15 -9 16 -9
4 -1 -14 -15 -17 -91 -18 -83 -1 -90 0 -90 18 0 16 7 19 45 18 25 0 45 -5 45
-11 0 -6 4 -5 9 3 6 8 19 12 35 9 15 -3 29 -2 31 2 3 4 22 4 42 1 21 -4 66 -5
99 -3z m-250 -151 c4 -4 13 -2 20 4 10 8 15 8 18 -2 13 -41 14 -43 15 -23 1
26 14 32 61 30 28 -1 36 -6 38 -24 3 -16 -2 -22 -15 -21 -10 0 -13 3 -5 6 6 2
10 9 6 14 -9 15 -24 10 -25 -8 -1 -17 -2 -17 -6 0 -2 9 -9 15 -14 11 -5 -3 -6
-10 -3 -16 5 -7 1 -9 -9 -5 -10 3 -17 2 -17 -4 0 -6 -9 -7 -22 -3 -13 4 -32 7
-43 8 -11 1 -23 6 -27 11 -5 6 -12 4 -18 -5 -8 -12 -10 -11 -10 6 0 11 2 23 5
26 7 7 43 3 51 -5z m85 -156 c1 -13 2 -14 5 -1 3 11 19 16 49 18 39 1 45 -1
45 -18 0 -11 -4 -20 -10 -20 -5 0 -10 7 -10 15 0 8 -5 15 -11 15 -6 0 -9 -6
-6 -13 3 -9 -8 -13 -39 -14 -35 -1 -44 2 -45 15 0 14 -2 15 -7 2 -5 -10 -24
-16 -59 -17 -47 -2 -53 0 -53 17 0 18 7 20 70 19 57 -1 70 -4 71 -18z"/>
<path d="M80 1120 c0 -5 5 -10 10 -10 6 0 10 5 10 10 0 6 -4 10 -10 10 -5 0
-10 -4 -10 -10z"/>
<path d="M375 1120 c-3 -5 -1 -10 4 -10 6 0 11 5 11 10 0 6 -2 10 -4 10 -3 0
-8 -4 -11 -10z"/>
<path d="M80 830 c0 -5 5 -10 10 -10 6 0 10 5 10 10 0 6 -4 10 -10 10 -5 0
-10 -4 -10 -10z"/>
<path d="M776 512 c-3 -3 -6 -18 -6 -34 0 -23 4 -28 25 -28 21 0 25 5 25 29 0
20 -6 30 -19 34 -11 3 -22 2 -25 -1z"/>
<path d="M842 511 c-8 -4 -12 -19 -10 -32 4 -34 52 -34 56 0 3 20 -11 41 -28
41 -3 0 -11 -4 -18 -9z m28 -26 c0 -8 -4 -15 -10 -15 -5 0 -10 7 -10 15 0 8 5
15 10 15 6 0 10 -7 10 -15z"/>
<path d="M1039 502 c-16 -25 -29 -29 -29 -7 0 10 -11 15 -35 15 -28 0 -35 -4
-35 -20 0 -11 -4 -20 -10 -20 -5 0 -10 9 -10 20 0 11 -5 20 -11 20 -6 0 -9
-12 -7 -27 4 -34 34 -43 53 -16 13 16 14 16 15 1 0 -14 10 -16 55 -15 30 1 55
6 55 11 0 4 6 4 13 -2 16 -12 127 -12 127 1 0 5 6 5 13 -2 11 -9 14 -5 15 18
0 18 -5 32 -15 35 -22 9 -33 -2 -34 -32 l-1 -27 -10 28 c-12 33 -34 35 -42 3
-4 -18 -11 -23 -26 -19 -25 7 -26 30 -2 35 12 2 13 6 5 11 -7 5 -20 0 -32 -12
-19 -19 -19 -19 -28 2 l-10 22 -14 -23z"/>
<path d="M1350 501 c-5 -11 -10 -27 -10 -37 0 -13 3 -14 14 -5 10 8 16 9 21 1
8 -13 65 -13 65 0 0 6 -4 10 -10 10 -5 0 -10 9 -10 20 0 11 -4 20 -10 20 -5 0
-10 -12 -10 -27 l-1 -28 -14 33 c-16 37 -21 39 -35 13z"/>
<path d="M1516 504 c-9 -8 -16 -11 -16 -5 0 6 -11 11 -25 11 -21 0 -25 -5 -25
-30 0 -23 4 -30 20 -30 10 0 23 8 29 18 9 16 10 16 16 0 4 -10 16 -18 27 -18
17 0 18 3 8 15 -7 8 -9 15 -4 15 5 0 2 5 -6 10 -13 8 -12 10 3 10 10 0 15 5
12 10 -9 14 -21 12 -39 -6z m-26 -19 c0 -8 -4 -15 -10 -15 -5 0 -10 7 -10 15
0 8 5 15 10 15 6 0 10 -7 10 -15z"/>
<path d="M1280 479 c0 -26 3 -30 23 -27 16 2 23 11 25 31 3 23 0 27 -22 27
-22 0 -26 -4 -26 -31z"/>
<path d="M383 368 c-4 -7 -8 -38 -8 -68 0 -52 -1 -55 -24 -52 -19 2 -21 0 -12
-11 6 -8 8 -17 4 -20 -3 -4 -1 -7 5 -7 22 0 12 -16 -15 -27 -27 -11 -27 -11
15 -12 47 -1 59 -21 12 -21 -25 0 -30 -4 -30 -24 0 -17 -5 -23 -17 -22 -12 0
-19 -7 -21 -22 -3 -16 5 -27 26 -39 27 -15 28 -19 14 -30 -14 -10 -2 -12 69
-13 72 0 88 3 93 16 4 9 0 24 -9 34 -8 9 -15 29 -15 45 0 32 19 104 33 122 12
16 0 33 -23 33 -28 0 -33 17 -10 37 22 19 25 44 10 74 -12 22 -83 27 -97 7z"/>
<path d="M770 355 c0 -22 4 -24 38 -23 20 1 40 6 44 12 5 7 8 7 8 1 0 -6 28
-12 62 -13 35 -2 67 -7 72 -12 12 -12 39 17 32 35 -6 18 -26 20 -26 4 0 -8 -4
-8 -15 1 -8 6 -19 9 -25 5 -5 -3 -10 -1 -10 5 0 6 -5 8 -12 4 -18 -11 -88 -12
-95 -1 -3 5 -9 3 -14 -4 -6 -11 -11 -11 -21 -1 -20 20 -38 14 -38 -13z"/>
<path d="M1300 372 c0 -4 -23 -8 -50 -7 -39 1 -49 -2 -45 -13 3 -7 5 -16 5
-18 0 -10 39 -3 43 9 4 10 6 10 6 0 1 -7 8 -13 16 -13 8 0 15 6 15 13 0 8 3 8
9 -2 10 -15 41 -8 41 8 0 6 -9 15 -20 21 -11 6 -20 7 -20 2z"/>
<path d="M1360 353 c0 -22 2 -25 10 -13 7 12 12 12 22 2 19 -19 38 -14 37 11
0 21 -1 21 -9 2 l-9 -20 -1 20 c-1 11 -4 15 -6 8 -3 -7 -12 -9 -20 -6 -13 5
-13 7 -2 14 10 7 9 9 -4 9 -13 0 -18 -8 -18 -27z"/>
<path d="M1442 355 c0 -16 2 -22 5 -12 2 9 2 23 0 30 -3 6 -5 -1 -5 -18z"/>
<path d="M1462 355 c0 -16 2 -22 5 -12 2 9 2 23 0 30 -3 6 -5 -1 -5 -18z"/>
<path d="M1593 365 c-17 -12 -23 -12 -27 -2 -3 9 -9 7 -19 -5 -17 -22 -28 -23
-21 -3 4 8 1 15 -5 15 -6 0 -11 -9 -11 -19 0 -17 8 -20 68 -20 60 0 68 2 68
19 0 10 -2 17 -5 15 -2 -3 -9 0 -16 5 -7 6 -19 4 -32 -5z m17 -15 c0 -5 -5
-10 -11 -10 -5 0 -7 5 -4 10 3 6 8 10 11 10 2 0 4 -4 4 -10z"/>
<path d="M286 348 c-3 -13 -6 -25 -6 -28 -1 -2 8 -7 19 -12 16 -5 23 -1 34 22
17 33 13 40 -19 40 -14 0 -24 -8 -28 -22z"/>
<path d="M1040 339 c0 -27 2 -29 15 -15 8 8 15 22 15 30 0 9 -7 16 -15 16 -10
0 -15 -10 -15 -31z"/>
<path d="M1080 350 c0 -14 8 -18 35 -18 29 0 35 3 34 22 0 20 -1 20 -9 1 -6
-13 -9 -15 -9 -5 -1 23 -51 23 -51 0z"/>
<path d="M1167 363 c-4 -3 -7 -13 -7 -22 1 -13 3 -13 11 2 11 19 8 33 -4 20z"/>
<path d="M1480 350 c0 -11 5 -20 10 -20 6 0 10 9 10 20 0 11 -4 20 -10 20 -5
0 -10 -9 -10 -20z"/>
<path d="M771 248 c1 -17 2 -19 6 -6 4 17 6 17 21 2 10 -10 17 -13 20 -6 2 7
11 8 25 3 32 -12 70 -7 75 10 3 11 1 11 -7 -1 -6 -8 -11 -10 -11 -4 0 6 -21
10 -50 9 -27 -1 -50 3 -50 7 0 4 -7 8 -15 8 -9 0 -15 -9 -14 -22z"/>
<path d="M1180 258 c0 -9 6 -18 13 -21 20 -6 47 4 47 19 0 19 -17 18 -24 -3
-6 -14 -8 -14 -21 3 -12 17 -14 17 -15 2z"/>
<path d="M1350 256 c0 -9 5 -16 10 -16 6 0 10 4 10 9 0 6 -4 13 -10 16 -5 3
-10 -1 -10 -9z"/>
<path d="M1512 262 c-7 -2 -12 -9 -12 -14 0 -6 3 -8 6 -5 4 3 16 2 27 -4 14
-8 18 -8 13 0 -4 6 -2 11 3 11 6 0 11 -5 11 -11 0 -5 5 -7 10 -4 23 14 -27 38
-58 27z"/>
<path d="M2073 254 c1 -21 27 -23 27 -2 0 5 -4 7 -9 4 -5 -4 -11 0 -14 6 -3 7
-4 3 -4 -8z"/>
<path d="M2220 255 c0 -8 4 -15 8 -15 5 0 9 7 9 15 0 8 -4 15 -9 15 -4 0 -8
-7 -8 -15z"/>
<path d="M937 246 c-6 -16 53 -17 65 -1 5 6 8 5 8 -2 0 -7 4 -13 10 -13 5 0 7
7 4 15 -6 16 -45 16 -56 0 -5 -6 -8 -5 -8 3 0 16 -17 15 -23 -2z"/>
<path d="M1070 248 c0 -4 16 -8 35 -8 19 0 35 4 35 9 0 5 -16 9 -35 8 -19 -1
-35 -5 -35 -9z"/>
<path d="M1263 243 c0 -7 4 -13 8 -13 4 0 9 6 12 13 3 8 0 14 -7 14 -7 0 -13
-6 -13 -14z"/>
<path d="M1315 250 c-11 -5 -18 -9 -15 -10 25 -7 37 -6 37 6 0 8 -1 14 -1 13
-1 0 -10 -4 -21 -9z"/>
<path d="M1396 251 c-4 -7 -5 -15 -2 -18 9 -9 19 4 14 18 -4 11 -6 11 -12 0z"/>
<path d="M1424 248 c-4 -7 -3 -8 4 -4 7 4 12 2 12 -3 0 -6 5 -11 10 -11 15 0
12 17 -5 23 -8 4 -17 1 -21 -5z"/>
<path d="M1620 250 c0 -5 5 -10 10 -10 6 0 10 5 10 10 0 6 -4 10 -10 10 -5 0
-10 -4 -10 -10z"/>
<path d="M1680 251 c0 -6 5 -13 10 -16 6 -3 10 1 10 9 0 9 -4 16 -10 16 -5 0
-10 -4 -10 -9z"/>
<path d="M1720 251 c0 -5 5 -13 10 -16 6 -3 10 -1 10 4 0 6 5 11 11 11 5 0 8
-4 5 -8 -3 -5 2 -9 10 -9 8 0 13 5 11 11 -5 14 -57 21 -57 7z"/>
<path d="M1810 249 c0 -5 5 -7 10 -4 6 3 10 8 10 11 0 2 -4 4 -10 4 -5 0 -10
-5 -10 -11z"/>
<path d="M1846 247 c-16 -12 -16 -14 -2 -14 9 0 16 5 16 10 0 5 7 6 16 3 8 -3
12 -2 9 4 -8 13 -18 13 -39 -3z"/>
<path d="M1910 244 c0 -14 3 -14 15 -4 8 7 15 14 15 16 0 2 -7 4 -15 4 -8 0
-15 -7 -15 -16z"/>
<path d="M1971 244 c0 -11 3 -14 6 -6 3 7 2 16 -1 19 -3 4 -6 -2 -5 -13z"/>
<path d="M2000 250 c0 -5 7 -10 16 -10 8 0 12 5 9 10 -3 6 -10 10 -16 10 -5 0
-9 -4 -9 -10z"/>
<path d="M2047 253 c-4 -3 -7 -11 -7 -17 0 -6 5 -5 12 2 6 6 9 14 7 17 -3 3
-9 2 -12 -2z"/>
<path d="M2110 247 c0 -6 3 -7 7 -4 3 4 12 2 19 -4 7 -6 18 -8 24 -4 20 12 10
24 -20 23 -16 -1 -30 -6 -30 -11z"/>
<path d="M2254 251 c-11 -12 -1 -20 19 -17 12 3 25 5 30 5 4 1 7 4 7 9 0 7
-48 10 -56 3z"/>
<path d="M2320 251 c0 -10 19 -25 25 -20 1 2 -3 10 -11 17 -8 7 -14 8 -14 3z"/>
<path d="M986 202 c-2 -4 -1 -14 5 -22 7 -12 9 -10 9 8 0 23 -5 28 -14 14z"/>
<path d="M770 185 c0 -6 7 -12 15 -12 8 0 15 6 15 12 0 6 -7 12 -15 12 -8 0
-15 -6 -15 -12z"/>
<path d="M830 190 c-8 -5 -11 -12 -7 -17 5 -4 12 -1 16 6 7 10 9 11 13 1 3
-10 9 -11 24 -2 10 6 14 12 7 12 -6 0 -17 2 -25 5 -7 3 -20 1 -28 -5z"/>
<path d="M910 185 c-7 -9 -10 -18 -6 -22 3 -3 6 -1 6 5 0 6 7 9 15 6 11 -5 13
-2 9 10 -8 20 -8 20 -24 1z"/>
<path d="M1020 190 c-12 -7 -12 -12 -2 -22 9 -9 12 -8 12 8 0 16 2 17 10 4 6
-9 10 -10 10 -3 0 17 -14 23 -30 13z"/>
<path d="M1093 185 c5 -13 40 -14 49 0 5 6 8 6 8 -2 0 -7 5 -13 10 -13 6 0 10
6 10 13 0 8 -14 12 -40 12 -23 0 -39 -4 -37 -10z"/>
<path d="M1210 192 c-5 -2 -10 -8 -10 -13 0 -12 43 -7 52 6 5 6 8 5 8 -2 0 -7
5 -13 10 -13 6 0 10 6 10 13 0 12 -44 17 -70 9z"/>
<path d="M1305 190 c-16 -6 -16 -7 -2 -13 8 -3 18 -1 21 6 3 9 5 9 5 0 1 -17
21 -17 21 0 0 15 -16 17 -45 7z"/>
<path d="M1461 184 c0 -11 3 -14 6 -6 3 7 2 16 -1 19 -3 4 -6 -2 -5 -13z"/>
<path d="M1483 185 c0 -8 4 -12 9 -9 5 3 6 10 3 15 -9 13 -12 11 -12 -6z"/>
<path d="M1520 185 c0 -8 4 -15 10 -15 5 0 7 7 4 15 -4 8 -8 15 -10 15 -2 0
-4 -7 -4 -15z"/>
<path d="M1546 187 c3 -10 9 -15 12 -12 3 3 0 11 -7 18 -10 9 -11 8 -5 -6z"/>
<path d="M1577 180 c-5 -19 16 -21 34 -3 7 7 4 12 -9 15 -14 4 -22 0 -25 -12z"/>
<path d="M1632 188 c6 -18 28 -21 28 -4 0 9 -7 16 -16 16 -9 0 -14 -5 -12 -12z"/>
<path d="M1683 187 c-3 -4 -2 -11 1 -14 3 -4 6 0 6 8 0 11 2 11 9 1 6 -11 10
-10 19 0 8 11 6 14 -9 14 -11 0 -23 -4 -26 -9z"/>
<path d="M1754 189 c-3 -6 -3 -13 0 -16 3 -4 6 0 6 8 0 12 2 12 9 0 8 -13 31
-8 31 7 0 12 -39 12 -46 1z"/>
<path d="M1820 185 c0 -8 2 -15 4 -15 2 0 6 7 10 15 3 8 1 15 -4 15 -6 0 -10
-7 -10 -15z"/>
<path d="M1850 185 c-10 -12 -10 -15 4 -15 9 0 16 7 16 15 0 8 -2 15 -4 15 -2
0 -9 -7 -16 -15z"/>
<path d="M1880 190 c0 -15 21 -23 32 -12 6 6 2 11 -11 15 -12 3 -21 1 -21 -3z"/>
<path d="M1930 185 c0 -8 4 -15 10 -15 5 0 7 7 4 15 -4 8 -8 15 -10 15 -2 0
-4 -7 -4 -15z"/>
<path d="M1964 189 c-3 -6 -3 -13 0 -16 3 -4 6 0 6 8 0 12 2 12 9 0 8 -13 31
-8 31 7 0 12 -39 12 -46 1z"/>
<path d="M2035 189 c-4 -6 -5 -12 -2 -15 2 -3 7 2 10 11 7 17 1 20 -8 4z"/>
<path d="M2090 190 c-8 -5 -18 -6 -22 -4 -4 3 -8 0 -8 -5 0 -6 6 -11 13 -11
16 0 43 18 36 24 -2 3 -11 1 -19 -4z"/>
<path d="M2163 192 c-37 -6 -26 -17 17 -17 22 0 40 1 40 2 0 8 -39 18 -57 15z"/>
<path d="M2253 193 c-18 -7 -16 -20 2 -20 8 0 15 6 15 14 0 7 -1 13 -2 12 -2
0 -9 -3 -15 -6z"/>
<path d="M2350 185 c-7 -9 -8 -15 -2 -15 5 0 12 7 16 15 3 8 4 15 2 15 -2 0
-9 -7 -16 -15z"/>
<path d="M2380 185 c0 -8 4 -15 10 -15 5 0 7 7 4 15 -4 8 -8 15 -10 15 -2 0
-4 -7 -4 -15z"/>
<path d="M2410 191 c0 -5 7 -11 15 -15 8 -3 15 -1 15 3 0 5 -7 11 -15 15 -8 3
-15 1 -15 -3z"/>
<path d="M770 123 c0 -15 2 -16 10 -3 8 12 10 12 16 -3 8 -21 24 -22 24 -1 0
8 -4 13 -9 9 -5 -3 -12 -1 -16 5 -10 16 -25 12 -25 -7z"/>
<path d="M973 126 c-10 -11 -9 -15 2 -20 10 -4 15 1 15 14 0 23 -1 24 -17 6z"/>
<path d="M1103 127 c2 -20 19 -25 26 -6 2 6 -1 9 -7 5 -6 -3 -13 0 -16 6 -3 7
-5 5 -3 -5z"/>
<path d="M1194 129 c-3 -6 -2 -15 3 -20 5 -5 9 -1 10 11 2 22 -2 25 -13 9z"/>
<path d="M2080 123 c0 -13 14 -18 35 -13 6 1 16 3 23 3 27 1 10 15 -23 19 -24
3 -35 0 -35 -9z"/>
<path d="M2380 127 c0 -10 8 -17 18 -17 9 0 13 4 7 8 -5 4 -13 11 -17 16 -5 5
-8 2 -8 -7z"/>
<path d="M831 114 c0 -11 3 -14 6 -6 3 7 2 16 -1 19 -3 4 -6 -2 -5 -13z"/>
<path d="M863 123 c-7 -3 -13 -9 -13 -15 0 -7 5 -6 14 1 10 8 16 9 21 1 4 -7
12 -7 24 0 10 5 21 7 24 4 3 -3 7 -1 10 3 3 5 -5 10 -19 11 -13 1 -24 -3 -24
-9 0 -8 -4 -8 -12 -2 -7 6 -19 8 -25 6z"/>
<path d="M1011 111 c-1 -19 2 -22 10 -14 6 6 17 9 24 7 6 -3 17 2 24 10 11 13
9 14 -18 6 -21 -6 -31 -5 -35 3 -2 7 -5 1 -5 -12z"/>
<path d="M1226 121 c-4 -7 -5 -15 -2 -18 9 -9 19 4 14 18 -4 11 -6 11 -12 0z"/>
<path d="M1250 123 c0 -1 9 -7 19 -12 14 -8 22 -7 31 4 10 12 7 14 -19 12 -17
-1 -31 -3 -31 -4z"/>
<path d="M1353 115 c0 -8 4 -15 9 -15 4 0 8 7 8 15 0 8 -4 15 -8 15 -5 0 -9
-7 -9 -15z"/>
<path d="M1380 115 c0 -8 2 -15 4 -15 2 0 6 7 10 15 3 8 1 15 -4 15 -6 0 -10
-7 -10 -15z"/>
<path d="M1417 114 c2 -6 21 -10 42 -10 30 1 37 4 29 13 -12 15 -77 13 -71 -3z"/>
<path d="M1510 118 c0 -6 3 -8 7 -5 3 4 12 2 19 -4 8 -7 14 -6 20 2 4 8 3 9
-4 5 -7 -4 -12 -2 -12 3 0 6 -7 11 -15 11 -8 0 -15 -5 -15 -12z"/>
<path d="M1583 124 c9 -3 15 -10 12 -15 -4 -5 -1 -9 5 -9 19 0 5 25 -16 27
-16 2 -16 1 -1 -3z"/>
<path d="M1635 120 c-3 -5 0 -10 9 -10 8 0 22 -3 32 -7 13 -5 15 -3 9 8 -7 11
-6 12 7 2 14 -12 28 -8 28 9 0 12 -78 10 -85 -2z"/>
<path d="M1776 115 c25 -19 34 -19 34 0 0 10 -10 15 -27 15 -26 0 -26 -1 -7
-15z"/>
<path d="M1831 113 c0 -12 2 -14 6 -4 5 11 7 11 15 0 8 -12 9 -12 6 0 -6 22
-28 25 -27 4z"/>
<path d="M1870 122 c0 -15 28 -22 34 -9 3 9 8 8 16 -3 10 -13 11 -13 7 0 -4
16 -57 27 -57 12z"/>
<path d="M1950 116 c0 -8 8 -14 19 -13 11 0 17 6 14 14 -7 18 -33 17 -33 -1z"/>
<path d="M2000 115 c0 -8 5 -15 11 -15 5 0 7 5 3 11 -4 8 0 8 15 0 17 -10 21
-9 21 4 0 9 -9 15 -25 15 -16 0 -25 -6 -25 -15z"/>
<path d="M2191 121 c-10 -6 -10 -10 -1 -16 13 -8 24 -1 19 14 -3 6 -10 7 -18
2z"/>
<path d="M2230 120 c0 -5 3 -10 8 -11 4 0 15 -2 25 -4 9 -2 17 1 17 6 0 4 7 5
17 2 11 -4 14 -3 9 5 -10 16 -43 15 -49 0 -4 -10 -6 -10 -6 0 -1 14 -21 17
-21 2z"/>
<path d="M2340 120 c0 -5 5 -10 10 -10 6 0 10 5 10 10 0 6 -4 10 -10 10 -5 0
-10 -4 -10 -10z"/>
<path d="M795 62 c-10 -10 -5 -18 13 -18 10 0 19 5 19 11 0 12 -23 16 -32 7z"/>
<path d="M840 54 c0 -16 2 -17 10 -4 6 9 10 10 10 3 0 -6 9 -11 20 -10 23 1
28 17 6 17 -8 0 -21 3 -30 6 -11 4 -16 0 -16 -12z"/>
<path d="M915 61 c-3 -5 -2 -12 3 -15 5 -3 9 1 9 9 0 17 -3 19 -12 6z"/>
<path d="M940 59 c0 -5 4 -8 9 -5 5 4 11 0 14 -6 2 -7 8 -9 13 -5 5 4 2 12 -6
17 -20 13 -30 12 -30 -1z"/>
<path d="M1016 55 c-3 -8 -1 -15 4 -15 6 0 10 4 10 8 0 5 7 9 15 9 8 0 15 -4
15 -9 0 -4 5 -8 12 -8 9 0 9 3 0 12 -18 18 -49 19 -56 3z"/>
<path d="M1092 46 c9 -17 12 -18 17 -6 7 17 32 20 43 5 4 -5 10 -6 14 -2 12
12 -3 19 -45 21 -37 2 -39 1 -29 -18z"/>
<path d="M1181 54 c0 -11 3 -14 6 -6 3 7 2 16 -1 19 -3 4 -6 -2 -5 -13z"/>
<path d="M1263 63 c-18 -7 -16 -23 2 -23 8 0 15 7 15 15 0 8 -1 15 -2 14 -2 0
-9 -3 -15 -6z"/>
<path d="M1290 58 c0 -4 9 -8 20 -8 11 0 20 4 20 8 0 4 -9 8 -20 8 -11 0 -20
-4 -20 -8z"/>
<path d="M1350 48 c0 -12 3 -18 7 -14 11 10 12 36 2 36 -5 0 -9 -10 -9 -22z"/>
<path d="M1475 62 c-14 -14 -1 -22 30 -19 19 1 35 5 35 8 0 8 -58 17 -65 11z"/>
<path d="M1557 63 c-11 -11 -8 -20 8 -20 8 0 15 6 15 14 0 14 -12 17 -23 6z"/>
<path d="M1615 60 c-4 -6 -3 -16 3 -22 6 -6 12 -6 17 2 4 6 3 16 -3 22 -6 6
-12 6 -17 -2z"/>
<path d="M1690 63 c-39 -7 -48 -23 -12 -20 18 1 34 8 37 15 2 6 3 11 2 11 -1
-1 -13 -4 -27 -6z"/>
<path d="M1793 62 c-13 -2 -23 -8 -23 -13 0 -9 37 -3 49 7 8 7 -4 10 -26 6z"/>
<path d="M1843 57 c-3 -4 -2 -11 1 -14 3 -4 6 -2 6 4 0 5 7 10 15 10 8 0 15
-5 15 -10 0 -5 6 -5 13 1 10 9 19 8 35 -3 20 -15 44 -3 27 13 -10 10 -105 9
-112 -1z"/>
<path d="M1970 59 c0 -4 7 -9 15 -13 9 -3 15 0 15 8 0 7 -7 13 -15 13 -8 0
-15 -4 -15 -8z"/>
<path d="M2017 63 c-4 -3 -7 -11 -7 -17 0 -6 5 -5 12 2 6 6 9 14 7 17 -3 3 -9
2 -12 -2z"/>
<path d="M2040 60 c0 -13 18 -22 24 -11 3 5 -1 11 -9 15 -8 3 -15 1 -15 -4z"/>
<path d="M2120 61 c0 -6 4 -13 10 -16 6 -3 7 1 4 9 -7 18 -14 21 -14 7z"/>
<path d="M2155 59 c-4 -6 -4 -13 -1 -16 3 -4 6 0 6 8 0 12 2 12 9 0 10 -15 31
-7 31 12 0 7 -4 6 -10 -3 -6 -10 -10 -11 -10 -2 0 15 -16 16 -25 1z"/>
<path d="M2215 62 c-11 -11 -4 -18 19 -18 14 0 22 5 19 11 -4 12 -29 16 -38 7z"/>
<path d="M2300 60 c-8 -5 -11 -12 -7 -17 5 -4 12 -1 16 6 7 11 10 11 14 0 3
-9 6 -10 6 -2 1 17 -13 23 -29 13z"/>
<path d="M1380 50 c0 -6 11 -10 25 -10 14 0 25 4 25 8 0 4 -11 9 -25 10 -14 1
-25 -3 -25 -8z"/>
<path d="M2090 49 c0 -5 5 -7 10 -4 6 3 10 8 10 11 0 2 -4 4 -10 4 -5 0 -10
-5 -10 -11z"/>
<path d="M227 24 c-8 -8 1 -24 14 -24 5 0 9 7 9 15 0 15 -12 20 -23 9z"/>
</g>
</svg>
